<?xml version="1.0" standalone="no"?>
<!DOCTYPE svg PUBLIC "-//W3C//DTD SVG 20010904//EN"
 "http://www.w3.org/TR/2001/REC-SVG-20010904/DTD/svg10.dtd">
<svg version="1.0" xmlns="http://www.w3.org/2000/svg"
 width="1500.000000pt" height="1000.000000pt" viewBox="0 0 1500.000000 1000.000000"
 preserveAspectRatio="xMidYMid meet">

<g transform="translate(0.000000,1000.000000) scale(0.100000,-0.100000)"
fill="#000000" stroke="none">
<path d="M9075 8323 c-87 -22 -113 -146 -75 -367 12 -70 24 -134 27 -142 4
-12 -316 -14 -2151 -14 l-2156 0 0 30 c0 44 -23 93 -55 118 l-28 22 -1303 0
c-1171 0 -1304 -2 -1318 -16 -9 -8 -16 -24 -16 -34 0 -10 -5 -20 -11 -22 -7
-2 -12 -30 -13 -67 l-1 -62 -220 -88 c-121 -48 -243 -100 -272 -114 -29 -15
-63 -27 -77 -27 -14 0 -31 -9 -38 -19 -8 -11 -48 -42 -91 -71 -89 -60 -220
-186 -246 -239 -10 -20 -28 -65 -40 -101 -21 -65 -94 -360 -107 -435 -3 -22
-12 -47 -19 -55 -36 -43 -80 -169 -106 -302 -10 -54 -28 -203 -39 -332 -52
-613 -52 -1357 0 -1967 32 -373 63 -511 150 -649 5 -8 21 -71 36 -140 14 -69
33 -134 40 -145 8 -11 14 -39 14 -62 0 -54 55 -215 91 -269 39 -58 153 -161
237 -214 39 -25 71 -50 71 -55 1 -16 101 -90 168 -124 34 -17 97 -44 140 -60
43 -16 130 -54 194 -85 116 -57 116 -57 122 -97 3 -22 12 -51 21 -64 l16 -25
1313 0 c1354 0 1337 0 1337 38 0 8 10 22 21 31 12 10 24 35 28 57 l6 39 2145
3 c1179 1 2147 -1 2151 -5 4 -5 -2 -48 -13 -98 -27 -127 -30 -307 -4 -358 44
-88 148 -89 244 -2 55 49 117 142 209 315 l78 145 256 3 255 2 12 -32 c7 -18
20 -43 30 -56 l17 -22 1189 0 c654 0 1190 1 1192 3 8 8 67 117 86 160 18 38
27 47 47 47 15 0 69 5 121 10 77 7 98 6 110 -5 33 -30 103 -47 165 -40 157 17
352 146 637 423 296 287 490 598 558 894 12 51 31 113 42 137 17 35 19 48 9
63 -10 16 -8 20 14 28 15 6 31 10 36 10 14 0 12 2285 -3 2326 -7 20 -20 35
-35 38 -20 6 -21 9 -12 30 9 18 7 31 -6 56 -9 18 -28 78 -41 134 -84 344 -294
663 -649 987 -169 153 -284 238 -394 291 -71 35 -97 42 -163 46 -70 4 -83 2
-132 -23 l-54 -27 -113 11 c-61 6 -113 12 -114 13 -2 2 -16 31 -33 64 -17 34
-50 80 -74 103 l-43 41 -1123 0 c-1016 0 -1128 -2 -1182 -17 -54 -15 -62 -20
-77 -55 l-17 -38 -255 0 -256 0 -70 132 c-117 222 -200 334 -275 373 -31 16
-88 25 -115 18z m100 -134 c138 -131 367 -549 334 -610 -22 -43 44 -82 79 -47
17 17 15 87 -3 138 -8 23 -15 44 -15 46 0 2 89 4 198 4 l197 -1 -29 -21 c-37
-28 -95 -90 -118 -128 -21 -35 -23 -61 -6 -78 22 -22 47 -12 73 27 65 104 149
154 285 170 107 12 582 26 885 25 295 0 1694 -96 1785 -122 14 -4 -611 -9
-1389 -12 -1332 -5 -1414 -6 -1425 -22 -8 -13 -8 -23 0 -35 11 -17 93 -18
1445 -22 l1434 -3 65 -71 c56 -61 61 -69 38 -63 -121 29 -521 82 -733 97 -260
19 -1363 15 -1685 -5 -146 -10 -290 -24 -321 -32 -83 -21 -100 -18 -162 26
-65 47 -83 49 -99 15 -15 -34 -2 -47 146 -147 197 -133 222 -154 300 -251 99
-123 231 -321 288 -432 172 -334 328 -1112 328 -1635 0 -476 -141 -1228 -295
-1575 -58 -132 -257 -430 -367 -549 -46 -50 -165 -144 -254 -198 -6 -4 32 36
85 90 94 95 280 333 376 480 211 328 338 862 352 1487 19 857 -178 1757 -488
2224 -82 125 -189 229 -392 384 -177 135 -197 148 -197 126 0 -8 62 -60 138
-116 242 -179 323 -260 439 -435 293 -443 475 -1238 476 -2073 0 -380 -34
-668 -119 -1015 -86 -348 -202 -568 -472 -893 -176 -211 -290 -299 -430 -331
-63 -14 -69 -33 -8 -28 47 4 119 32 178 67 49 30 23 5 -46 -42 -46 -33 -57
-58 -34 -81 20 -20 42 -14 99 27 30 21 77 50 104 64 28 14 75 43 105 66 34 26
61 39 72 35 9 -3 100 13 200 35 101 22 291 61 423 86 896 171 1019 201 1720
415 321 98 439 138 533 180 l62 29 0 -50 c0 -69 -27 -182 -60 -254 -15 -32
-26 -65 -23 -72 6 -16 47 -28 63 -18 39 24 93 204 105 353 7 82 8 83 44 106
20 13 37 22 39 21 2 -2 -4 -40 -13 -86 -8 -46 -21 -111 -27 -144 -51 -273
-299 -634 -461 -672 -83 -20 -355 -34 -727 -38 -190 -2 -403 -9 -475 -14 -210
-17 -565 -13 -860 9 -352 26 -655 37 -655 23 0 -7 40 -13 103 -17 56 -3 257
-15 447 -28 201 -13 449 -22 595 -23 419 0 1473 36 1548 54 l37 9 -52 -58 -53
-59 -1423 0 c-961 -1 -1430 -4 -1443 -11 -20 -11 -26 -54 -10 -65 5 -3 642 -5
1415 -5 932 0 1407 -3 1411 -10 3 -5 1 -10 -6 -10 -7 0 -141 -11 -298 -25
-831 -72 -1622 -112 -1806 -90 -27 4 -178 10 -335 14 -315 9 -356 16 -432 74
-24 18 -59 56 -78 84 -19 29 -41 54 -48 57 -21 9 -52 -13 -52 -36 0 -32 56
-113 109 -158 l46 -40 -192 0 -191 0 14 47 c18 61 18 118 -2 137 -37 38 -96 0
-72 -47 29 -57 -185 -453 -324 -601 -61 -64 -92 -72 -109 -28 -13 33 -13 28
49 272 55 214 67 252 105 327 24 46 26 63 7 63 -4 0 -21 -28 -38 -63 -33 -66
-66 -177 -104 -342 -12 -55 -24 -92 -26 -82 -3 17 59 329 78 389 5 14 24 52
44 82 l36 56 56 0 c48 0 55 -2 50 -17 -22 -80 -15 -113 25 -113 29 0 49 41 56
113 6 73 -4 97 -41 97 -15 0 -58 37 -130 110 -247 254 -547 418 -931 510 -254
61 -851 145 -1215 171 -177 13 -503 7 -630 -11 -109 -16 -276 -50 -321 -65
-25 -9 -41 -10 -45 -4 -6 11 -316 6 -345 -6 -8 -3 -28 -1 -43 5 -35 13 -36 13
-36 -4 0 -16 44 -33 110 -41 83 -11 89 -14 113 -58 31 -53 31 -53 62 -297 22
-177 74 -470 91 -515 5 -13 -248 -15 -2084 -15 l-2090 0 -154 61 c-211 85
-287 124 -292 152 -3 12 -8 56 -11 97 -15 181 -90 536 -142 675 -14 39 -25 52
-48 60 -78 26 -151 99 -192 190 -17 38 -18 118 -21 1437 l-2 1397 25 57 c14
31 25 62 25 69 0 20 70 48 133 53 69 5 66 1 111 159 44 152 80 333 101 503 9
74 18 149 21 166 4 28 14 35 102 77 53 26 191 83 306 127 165 64 215 79 241
74 19 -3 35 -1 39 5 5 8 575 11 2008 11 l2001 0 -6 -60 c-3 -41 -15 -77 -35
-114 -20 -34 -27 -57 -21 -63 6 -6 -1 -39 -20 -91 -17 -45 -37 -108 -46 -141
-8 -32 -37 -108 -64 -169 -27 -60 -61 -145 -76 -188 -21 -63 -35 -86 -67 -114
-22 -19 -54 -37 -70 -40 -16 -3 -30 -9 -31 -15 -1 -6 54 -11 146 -13 126 -2
147 0 147 13 0 11 -12 15 -51 15 -45 0 -50 2 -44 18 4 9 11 35 16 57 11 58 32
112 78 206 23 46 43 100 45 119 4 33 18 72 50 145 8 17 27 71 44 120 26 78 67
189 106 288 l11 27 1401 0 1402 0 7 -57 c3 -32 9 -68 12 -80 l5 -23 -1280 0
c-1067 0 -1282 -2 -1289 -14 -10 -17 -47 -36 -70 -36 -28 0 -164 -131 -214
-206 -152 -229 -204 -394 -165 -524 13 -43 16 -46 72 -63 86 -26 284 -64 399
-77 145 -16 505 -13 701 5 188 18 624 75 809 106 254 42 441 90 598 153 110
45 147 64 275 142 144 88 253 176 349 281 64 70 89 91 120 98 37 10 38 11 41
60 1 28 -3 70 -11 95 -12 42 -15 45 -47 45 -32 0 -35 -2 -34 -30 0 -16 2 -43
5 -60 4 -27 1 -30 -27 -33 -18 -2 -47 1 -65 6 -34 8 -34 8 -31 63 3 43 -3 70
-23 120 -39 94 -43 111 -55 228 -6 58 -18 141 -26 185 -28 154 -16 168 71 85z
m-84 -171 c6 -53 9 -104 7 -114 -5 -22 -24 80 -33 176 -9 103 13 49 26 -62z
m-4526 -148 c-8 -13 -2474 -13 -2495 0 -10 6 422 10 1243 10 817 0 1256 -3
1252 -10z m-25 -50 c-11 -20 -21 -20 -1240 -20 -808 0 -1231 3 -1235 10 -3 6
-3 15 0 20 4 7 430 10 1246 10 1237 0 1240 0 1229 -20z m7860 -50 l0 -61 -57
6 c-32 3 -146 10 -253 16 -107 5 -321 22 -475 37 -312 29 -662 35 -1106 18
-243 -9 -259 -7 -245 29 5 13 149 15 1071 15 l1065 0 0 -60z m-3220 -171 c8
-94 -14 -68 -34 40 -9 46 -16 88 -16 95 1 18 48 -109 50 -135z m3315 121 c3
-5 1 -10 -4 -10 -6 0 -11 5 -11 10 0 6 2 10 4 10 3 0 8 -4 11 -10z m480 -87
c-4 -10 -10 -26 -12 -35 -3 -10 -9 -18 -14 -18 -12 0 -11 17 1 25 6 3 10 15
10 26 0 10 5 19 11 19 7 0 8 -7 4 -17z m70 -28 c28 -27 30 -37 15 -66 -12 -22
-39 -25 -65 -5 -17 12 -18 18 -7 55 15 48 24 50 57 16z m183 -64 c43 -22 90
-67 223 -211 215 -235 349 -392 349 -410 0 -4 -42 -10 -93 -14 -51 -4 -120
-13 -153 -21 -32 -7 -61 -12 -63 -9 -3 2 -16 30 -30 62 -33 71 -105 203 -144
260 -16 24 -30 50 -31 58 -1 8 -12 23 -24 34 -12 11 -37 44 -55 73 -31 48 -53
66 -101 81 -19 6 -19 7 2 22 12 8 27 33 33 54 14 46 30 50 87 21z m-4091 -81
c14 -11 44 -23 65 -27 l40 -6 -54 -54 c-249 -255 -594 -429 -1030 -517 -136
-27 -590 -94 -833 -123 -216 -25 -724 -25 -883 0 -144 23 -303 63 -314 79 -16
27 -8 118 17 185 51 134 184 336 256 388 27 19 53 35 58 35 6 0 22 5 38 12 15
6 33 10 39 10 6 -1 19 7 29 18 18 20 29 20 1282 20 1252 0 1265 0 1290 -20z
m3208 -30 c161 -15 536 -68 640 -91 l90 -19 78 -78 c168 -166 271 -369 317
-623 11 -63 23 -127 26 -143 l6 -28 -39 22 -39 22 -12 113 c-25 233 -102 390
-155 314 -14 -19 -12 -27 14 -83 33 -71 59 -178 59 -249 l0 -47 -37 16 c-115
49 -274 103 -583 198 -615 187 -863 249 -1430 356 -359 68 -597 115 -767 154
-62 14 -119 23 -127 20 -8 -3 -39 12 -68 34 -29 22 -64 45 -78 53 -24 13 -24
13 30 26 59 13 434 41 640 47 243 6 1327 -4 1435 -14z m1241 -173 c101 -97
281 -304 292 -337 2 -6 -6 -10 -17 -10 -13 0 -30 14 -46 39 -31 50 -126 160
-275 320 -139 150 -119 145 46 -12z m-12264 96 c6 -22 -46 -238 -60 -256 -7
-8 -27 -11 -51 -9 -38 4 -41 6 -41 36 0 17 11 65 24 106 21 64 30 80 66 108
49 37 56 39 62 15z m-176 -197 c-6 -30 -14 -52 -18 -50 -4 3 -8 12 -8 20 0 15
26 84 32 84 2 0 -1 -24 -6 -54z m9966 -95 c687 -130 978 -196 1283 -295 77
-24 210 -65 295 -91 250 -74 396 -124 535 -183 72 -29 135 -58 141 -63 6 -5
32 -20 58 -34 120 -64 278 -206 350 -315 l36 -55 0 -1026 0 -1026 -41 -64
c-74 -114 -296 -303 -380 -322 -14 -4 -35 -15 -48 -26 -34 -29 -245 -112 -456
-179 -815 -258 -930 -288 -1771 -446 -248 -47 -490 -95 -538 -106 -48 -11 -89
-20 -93 -20 -3 0 26 33 64 74 140 147 225 300 388 696 118 285 190 627 216
1020 13 199 7 796 -11 955 -39 359 -116 660 -246 960 -147 339 -216 458 -343
596 l-70 76 104 -23 c56 -13 293 -60 527 -103z m-10023 35 c-13 -15 -19 -3
-12 24 6 22 7 22 14 4 3 -10 3 -23 -2 -28z m217 -13 c-10 -26 -18 -8 -9 23 5
21 8 24 11 11 2 -10 1 -25 -2 -34z m-65 -94 c15 -24 10 -75 -12 -126 -11 -26
-26 -77 -33 -112 l-12 -65 -44 -11 c-25 -7 -59 -19 -76 -28 l-31 -16 -7 61
c-14 134 -1 215 46 279 l30 42 65 -6 c39 -3 69 -10 74 -18z m4640 -166 c-8
-15 -10 -15 -11 -2 0 17 10 32 18 25 2 -3 -1 -13 -7 -23z m8033 -53 c15 -33
25 -68 21 -78 -3 -11 18 -68 54 -143 52 -109 107 -266 97 -276 -2 -2 -21 3
-42 11 -22 8 -97 27 -168 42 -198 40 -250 64 -285 132 -7 13 -25 84 -41 159
-17 75 -32 144 -35 154 -5 14 2 20 34 29 54 14 170 27 262 29 l76 1 27 -60z
m86 -42 c71 -130 149 -348 123 -348 -12 0 -100 185 -153 322 -47 120 -31 134
30 26z m-13005 -123 c-13 -29 -13 -27 -14 36 -1 77 11 100 20 37 4 -26 2 -54
-6 -73z m-47 -237 c9 -9 12 -312 12 -1304 0 -1413 3 -1332 -55 -1306 l-25 12
0 1293 c0 992 3 1296 12 1305 7 7 19 12 28 12 9 0 21 -5 28 -12z m12837 -102
c17 -4 44 -13 60 -21 17 -7 38 -16 48 -19 15 -5 17 -18 16 -108 -1 -74 -3 -92
-9 -65 -4 20 -14 45 -22 55 -20 22 -83 89 -128 137 -27 29 -30 36 -15 32 11
-3 34 -8 50 -11z m294 -83 c2 -1 -17 -3 -42 -3 -40 0 -47 3 -47 20 0 19 1 19
43 3 23 -9 44 -18 46 -20z m-11 -89 l22 -6 -2 -1092 -3 -1091 -47 -5 -48 -6 0
1103 0 1103 28 0 c15 0 37 -3 50 -6z m165 -145 c28 -9 37 -17 37 -35 0 -23 0
-23 -47 -9 -27 8 -49 15 -50 15 -2 0 -3 12 -3 26 0 17 4 24 13 20 6 -2 29 -10
50 -17z m-7 -130 c27 -7 44 -17 44 -26 0 -8 -6 -13 -12 -10 -7 2 -30 10 -50
18 -21 7 -38 17 -38 21 0 10 3 10 56 -3z m24 -120 c10 -6 -1 -8 -32 -9 -37 0
-48 4 -48 16 0 12 7 14 33 9 17 -4 39 -11 47 -16z m-343 -1056 c-1 -197 -2
-36 -2 357 0 393 1 554 2 358 2 -197 2 -519 0 -715z m363 923 l0 -44 -42 9
c-54 13 -58 16 -58 43 0 31 7 36 57 36 l43 0 0 -44z m-13460 -573 c0 -273 -2
-494 -5 -492 -2 3 -11 115 -20 249 -14 204 -15 275 -6 425 14 214 22 315 27
315 2 0 4 -224 4 -497z m13460 341 c0 -24 -5 -44 -10 -44 -6 0 -29 9 -50 20
-29 15 -40 27 -40 44 0 31 2 32 54 28 l46 -4 0 -44z m0 -229 c0 -74 -10 -80
-67 -45 -28 17 -33 25 -33 59 0 42 6 46 73 50 27 1 27 1 27 -64z m0 -222 c0
-55 -2 -64 -16 -59 -9 3 -31 6 -50 6 -34 0 -34 0 -34 45 0 41 3 46 37 64 54
27 63 20 63 -56z m0 -223 l0 -50 -50 0 c-48 0 -50 1 -50 28 0 23 8 32 43 49
23 12 45 22 50 22 4 1 7 -21 7 -49z m0 -230 l0 -40 -50 0 c-49 0 -50 1 -50 30
0 25 5 31 33 39 61 18 67 15 67 -29z m-20 -129 c0 -5 -10 -11 -22 -14 -13 -2
-31 -8 -40 -12 -14 -5 -18 -2 -18 14 0 18 6 21 40 21 22 0 40 -4 40 -9z m20
-101 c0 -5 -1 -10 -2 -10 -2 0 -25 -7 -51 -15 -57 -17 -62 1 -6 21 43 16 59
17 59 4z m-2 -121 c-2 -15 -17 -27 -51 -39 l-48 -19 3 27 c2 21 11 30 38 39
51 17 62 16 58 -8z m-358 -253 c0 -42 -1 -44 -47 -64 -95 -39 -96 -37 -26 37
38 38 69 70 71 70 1 1 2 -19 2 -43z m150 -20 c-46 -25 -70 -29 -70 -12 0 14
23 21 75 24 17 1 16 -1 -5 -12z m30 -126 c-5 -9 -16 -44 -25 -79 -21 -82 -69
-177 -158 -318 l-72 -112 -62 0 c-68 -1 -203 16 -238 29 l-22 8 33 157 c18 86
42 170 53 188 22 36 75 69 134 85 52 14 45 2 -33 -61 -68 -55 -109 -112 -93
-128 6 -6 18 4 34 28 13 21 51 59 84 85 33 27 64 59 69 72 6 16 20 26 40 30
17 3 65 12 106 20 41 8 91 21 110 29 32 14 36 14 41 -1 4 -9 3 -24 -1 -32z
m40 -79 c0 -71 -157 -411 -190 -411 -10 0 -22 -4 -25 -10 -3 -5 -13 -10 -21
-10 -9 0 6 27 40 73 61 80 108 169 126 237 26 99 70 174 70 121z m-13130 -206
c26 -29 28 -36 33 -161 5 -97 12 -146 27 -185 24 -64 24 -69 5 -69 -14 0 -17
7 -54 155 -20 81 -71 319 -71 332 0 4 7 -4 17 -17 9 -14 28 -38 43 -55z m167
-80 c26 -4 43 -13 46 -23 22 -74 67 -250 67 -264 0 -18 -36 -31 -121 -43 l-46
-6 -17 41 c-24 59 -40 191 -37 297 l1 32 33 -13 c17 -8 51 -17 74 -21z m5961
-36 c321 -23 920 -110 1152 -168 345 -86 605 -216 833 -416 45 -40 93 -84 106
-99 23 -25 23 -26 4 -26 -11 0 -42 -11 -69 -25 l-49 -25 -1266 0 -1266 0 -84
42 c-104 53 -160 107 -234 228 -87 141 -127 234 -133 306 -7 91 -1 98 125 128
108 25 284 53 378 59 119 8 368 6 503 -4z m-1077 -70 c-17 -50 -13 -143 10
-212 24 -72 103 -225 160 -309 56 -82 175 -198 203 -198 24 0 70 -23 84 -42
12 -17 81 -18 1289 -18 1159 0 1275 -1 1269 -16 -3 -9 -6 -27 -6 -40 l0 -24
-1470 0 c-1227 0 -1470 2 -1470 13 0 8 -22 95 -49 193 -27 98 -54 211 -60 249
-55 343 -59 381 -38 407 11 15 77 39 86 32 2 -2 -2 -17 -8 -35z m7627 -116
c45 -3 82 -8 82 -10 0 -16 -101 -173 -154 -239 -106 -133 -324 -326 -423 -377
-30 -16 -32 -16 -38 4 -4 11 -21 36 -37 55 l-31 35 105 102 c134 132 249 303
301 448 5 15 11 15 59 3 29 -8 90 -17 136 -21z m202 -17 c0 -3 -35 -49 -79
-103 -142 -178 -368 -385 -559 -514 -71 -47 -92 -57 -92 -41 1 4 22 17 48 29
105 50 320 240 432 382 66 84 150 217 150 239 0 8 17 12 50 12 28 0 50 -2 50
-4z m-12556 -278 c25 -163 25 -163 -39 -96 -29 32 -72 88 -94 125 l-41 68 42
8 c24 5 57 12 73 16 19 5 33 3 37 -4 3 -6 14 -58 22 -117z m-153 11 c36 -61
76 -112 119 -152 68 -63 45 -54 -53 20 -57 44 -120 119 -151 180 -21 41 -20
43 7 43 19 0 34 -18 78 -91z m11893 -361 c8 -23 6 -32 -14 -53 -13 -14 -31
-25 -41 -25 -10 0 -21 -4 -24 -10 -10 -16 -25 -11 -25 8 0 10 -5 23 -11 29 -8
8 0 21 26 47 43 44 75 45 89 4z m-11469 -76 c25 -15 31 -21 15 -16 -36 10
-137 62 -145 74 -7 11 66 -21 130 -58z m2441 -52 c2027 0 2034 0 2034 -20 0
-20 -7 -20 -1973 -20 -1414 0 -1976 3 -1984 11 -8 8 -17 8 -31 0 -16 -8 -31
-7 -66 9 -25 10 -46 22 -46 26 0 3 7 3 16 0 9 -3 931 -6 2050 -6z m5014 -20
c0 -20 -7 -20 -1460 -20 -1453 0 -1460 0 -1460 20 0 20 7 20 1460 20 1453 0
1460 0 1460 -20z m3450 -20 c0 -5 -4 -10 -10 -10 -5 0 -10 5 -10 10 0 6 5 10
10 10 6 0 10 -4 10 -10z m-100 -55 l0 -55 -1070 0 c-1045 0 -1070 0 -1070 19
0 17 10 19 93 23 50 2 160 0 242 -5 310 -19 646 -13 960 17 305 28 637 52 768
55 l77 1 0 -55z m-10447 13 c15 -5 27 -14 27 -19 0 -5 -19 0 -42 12 -47 24
-64 36 -33 25 11 -5 32 -13 48 -18z m2587 -58 c11 -20 8 -20 -1235 -20 -1270
0 -1272 0 -1238 33 3 4 559 7 1234 7 1218 0 1228 0 1239 -20z m30 -60 c0 -14
-2496 -14 -2505 0 -4 7 415 10 1249 10 831 0 1256 -3 1256 -10z"/>
<path d="M3505 7459 c-88 -5 -342 -13 -565 -18 -460 -10 -482 -13 -543 -80
-43 -48 -55 -98 -38 -161 15 -58 48 -86 231 -199 80 -50 170 -109 200 -132 64
-49 184 -109 217 -109 13 0 23 -4 23 -9 0 -5 21 -16 46 -25 41 -14 184 -16
1280 -16 1210 -1 1234 0 1272 19 81 41 148 151 187 305 26 104 45 242 45 333
0 57 -2 63 -29 82 -29 21 -32 21 -1098 19 -587 0 -1140 -5 -1228 -9z m2271
-156 c-20 -261 -82 -438 -171 -493 l-34 -21 -1172 1 c-1324 1 -1226 -5 -1409
82 -183 87 -531 302 -545 336 -16 39 -13 82 9 114 21 31 25 33 76 31 30 -1
172 3 315 9 533 21 796 25 1854 26 l1083 2 -6 -87z"/>
<path d="M4456 7221 c-3 -5 34 -31 82 -59 113 -66 214 -137 284 -201 39 -36
59 -48 64 -39 15 25 -185 182 -347 271 -72 40 -75 41 -83 28z"/>
<path d="M4125 7181 c-3 -5 32 -35 77 -67 46 -32 124 -99 175 -150 51 -52 95
-89 98 -84 15 24 -122 162 -253 254 -85 60 -88 61 -97 47z"/>
<path d="M9695 7303 c-146 -20 -353 -103 -609 -245 -209 -116 -345 -177 -531
-238 -223 -72 -309 -115 -387 -190 -61 -59 -72 -89 -39 -112 10 -7 35 -51 56
-98 124 -282 148 -341 170 -423 l25 -91 0 -906 c1 -888 0 -906 -20 -985 -35
-134 -198 -510 -231 -534 -33 -23 -23 -55 38 -116 71 -71 182 -126 388 -190
192 -60 247 -85 485 -213 419 -227 568 -278 788 -270 97 3 128 8 180 30 324
134 601 540 701 1028 30 146 39 232 57 530 14 230 15 383 10 930 -4 360 -11
669 -16 685 -5 17 -13 80 -19 140 -48 488 -283 952 -588 1163 -56 39 -150 82
-215 97 -58 14 -173 17 -243 8z m266 -107 c39 -14 96 -40 127 -58 77 -45 230
-197 287 -286 118 -183 216 -446 272 -729 15 -79 18 -188 23 -1018 3 -511 4
-931 4 -933 -1 -2 -48 55 -105 125 -258 321 -490 570 -1166 1253 -264 267
-496 504 -517 528 -40 44 -56 52 -56 27 0 -9 195 -213 433 -453 831 -840 1002
-1023 1274 -1359 63 -78 120 -140 127 -137 13 5 12 -20 -5 -176 -21 -190 -87
-429 -173 -628 -117 -270 -299 -465 -514 -550 -58 -23 -82 -26 -182 -26 -161
-1 -217 19 -680 249 -339 168 -408 198 -579 255 -132 44 -214 77 -254 103 -56
36 -59 40 -53 70 4 17 34 92 67 167 86 190 129 295 150 370 18 61 19 116 19
1018 l0 954 -31 86 c-16 48 -65 166 -108 262 -109 244 -109 244 -85 271 34 38
100 69 261 123 221 74 286 103 638 279 335 168 426 208 531 231 92 21 204 14
295 -18z"/>
<path d="M9324 6069 c-3 -6 5 -21 19 -33 514 -432 578 -488 716 -621 178 -172
316 -343 416 -516 27 -46 50 -86 51 -88 2 -1 8 0 14 4 21 13 -91 195 -217 353
-152 190 -323 353 -752 713 -249 209 -238 201 -247 188z"/>
<path d="M9940 5940 c0 -5 36 -39 79 -76 44 -36 92 -84 107 -105 27 -40 44
-49 44 -25 0 22 -60 91 -136 155 -69 59 -94 72 -94 51z"/>
<path d="M9160 5234 c0 -9 204 -219 453 -467 416 -414 573 -578 637 -665 22
-30 50 -43 50 -23 0 27 -250 293 -663 704 -258 257 -471 467 -473 467 -2 0 -4
-7 -4 -16z"/>
<path d="M9405 4501 c-3 -5 54 -63 126 -127 73 -65 154 -141 182 -168 49 -51
137 -175 137 -195 0 -14 18 -23 30 -16 25 15 -74 157 -181 261 -96 92 -275
254 -283 254 -3 0 -7 -4 -11 -9z"/>
<path d="M1750 6950 c-135 -29 -250 -131 -330 -294 -28 -55 -61 -141 -73 -191
-13 -49 -28 -100 -35 -111 -8 -16 -11 -343 -12 -1290 -1 -1342 -1 -1346 45
-1527 65 -255 201 -431 374 -481 69 -20 211 -21 323 -1 158 27 501 133 635
195 124 58 167 91 192 149 45 105 49 166 40 591 -11 494 0 2400 13 2417 10 12
-10 130 -31 184 -21 56 -172 148 -345 208 -120 42 -375 116 -472 136 -95 20
-262 28 -324 15z m314 -105 c362 -75 619 -166 729 -256 l37 -30 0 -1465 c0
-1242 -2 -1479 -15 -1563 -8 -54 -17 -106 -21 -114 -7 -20 -82 -68 -157 -101
-138 -60 -543 -169 -692 -185 -296 -32 -467 128 -541 504 -22 116 -21 2615 2
2735 51 268 180 449 351 489 71 17 185 11 307 -14z"/>
<path d="M2270 6058 c0 -13 19 -40 48 -67 55 -54 167 -117 177 -101 8 14 12
11 -55 46 -30 16 -81 55 -112 87 -49 48 -58 54 -58 35z"/>
<path d="M1770 5942 c0 -5 111 -119 248 -253 304 -300 496 -500 615 -641 50
-59 94 -108 99 -108 53 0 -215 297 -690 765 -224 221 -272 263 -272 237z"/>
<path d="M1480 5901 c0 -5 48 -49 108 -97 214 -176 310 -261 471 -419 260
-255 400 -436 496 -638 42 -89 65 -118 65 -84 0 22 -87 193 -136 270 -154 238
-445 536 -851 870 -123 101 -153 120 -153 98z"/>
<path d="M1610 5358 c0 -7 78 -85 173 -173 462 -428 653 -636 779 -848 27 -44
44 -65 51 -58 26 26 -176 301 -369 501 -128 131 -605 581 -625 588 -5 2 -9 -2
-9 -10z"/>
<path d="M1856 4582 c-3 -5 17 -26 44 -46 42 -32 99 -106 156 -202 7 -10 15
-16 20 -11 20 19 -86 178 -157 234 -44 34 -54 39 -63 25z"/>
<path d="M3040 6585 c0 -13 279 -15 2472 -13 1966 2 2472 6 2476 16 3 9 -496
12 -2472 12 -2196 0 -2476 -2 -2476 -15z"/>
<path d="M2950 5813 c0 -379 0 -1012 0 -1408 0 -396 0 -742 0 -768 0 -30 4
-46 10 -42 14 9 14 2905 0 2905 -7 0 -10 -236 -10 -687z"/>
<path d="M1060 5070 c0 -753 3 -1140 10 -1140 7 0 10 387 10 1140 0 753 -3
1140 -10 1140 -7 0 -10 -387 -10 -1140z"/>
<path d="M8282 5028 c2 -576 6 -872 13 -870 16 4 14 1734 -3 1740 -10 3 -12
-172 -10 -870z"/>
<path d="M1236 5873 c-3 -3 -6 -375 -6 -825 0 -720 2 -818 15 -818 13 0 15 98
15 819 0 451 -4 822 -9 825 -4 3 -11 3 -15 -1z"/>
<path d="M3003 3438 c6 -19 4948 -19 4955 0 3 9 -497 12 -2478 12 -1981 0
-2481 -3 -2477 -12z"/>
<path d="M3041 3248 c-121 -48 -219 -101 -313 -170 -37 -27 -109 -72 -160 -99
-166 -91 -225 -158 -215 -245 7 -65 40 -109 105 -141 l57 -28 355 -7 c195 -4
445 -12 555 -17 114 -6 667 -11 1286 -11 968 0 1089 2 1117 16 31 15 32 17 32
82 0 146 -39 353 -86 461 -37 83 -92 148 -148 176 l-50 25 -1215 0 -1216 -1
-104 -41z m1354 -45 c638 -1 1168 -2 1177 -2 30 -1 88 -62 119 -123 44 -87 89
-312 89 -443 l0 -27 -1302 5 c-1778 6 -1993 18 -2037 113 -9 21 -8 32 5 60 14
30 39 51 115 99 9 6 50 33 90 61 128 88 312 192 369 209 30 9 82 27 115 40 36
14 68 21 80 17 11 -4 542 -8 1180 -9z"/>
<path d="M4126 3063 c-13 -13 -4 -22 61 -64 88 -58 185 -153 208 -206 10 -24
25 -43 33 -43 35 0 -46 130 -122 194 -70 59 -172 126 -180 119z"/>
<path d="M4494 3059 c-4 -7 5 -21 22 -33 47 -33 169 -154 262 -258 48 -54 93
-98 100 -98 8 0 12 4 10 9 -6 19 -195 226 -271 297 -90 85 -112 100 -123 83z"/>
<path d="M7222 7258 c3 -7 31 -28 64 -46 100 -57 215 -138 311 -221 82 -72
103 -84 103 -60 0 11 -175 158 -250 211 -80 55 -204 128 -220 128 -6 0 -10 -6
-8 -12z"/>
<path d="M7010 7221 c0 -6 17 -22 38 -38 61 -45 161 -132 259 -226 64 -62 93
-84 99 -76 9 15 -148 168 -286 280 -80 65 -110 81 -110 60z"/>
<path d="M10992 6919 c3 -8 23 -17 46 -21 23 -4 83 -20 134 -37 51 -16 149
-41 218 -56 69 -15 202 -47 296 -71 206 -53 457 -115 729 -179 248 -59 450
-124 710 -227 311 -125 420 -186 452 -253 9 -19 23 -35 30 -35 18 0 17 7 -12
55 -43 74 -155 137 -470 262 -297 119 -445 164 -899 273 -226 55 -478 117
-561 139 -82 21 -216 53 -297 70 -80 18 -178 42 -217 56 -94 32 -165 43 -159
24z"/>
<path d="M10868 6825 c-10 -23 -7 -30 44 -83 61 -63 116 -158 96 -164 -8 -3 3
-56 35 -168 49 -168 113 -517 124 -677 5 -64 9 -83 21 -83 20 0 12 96 -28 341
-17 100 -29 187 -27 193 4 11 58 -233 81 -364 8 -47 20 -142 26 -210 11 -131
20 -153 60 -143 27 7 33 35 26 122 -19 218 -54 405 -126 675 -87 324 -138 443
-231 536 -56 56 -84 63 -101 25z"/>
<path d="M11263 4522 c-8 -5 -17 -55 -23 -136 -6 -71 -22 -188 -35 -261 -35
-190 -137 -586 -174 -678 -36 -90 -93 -181 -128 -204 -34 -23 -46 -49 -33 -73
31 -59 130 30 205 184 48 99 135 388 184 616 54 247 84 517 61 545 -14 16 -38
19 -57 7z"/>
<path d="M11121 4139 c-7 -44 -28 -137 -47 -207 -19 -70 -46 -181 -60 -247
-16 -76 -37 -141 -56 -178 -29 -54 -32 -77 -8 -62 25 15 63 116 90 234 16 69
45 185 65 256 37 134 57 285 38 285 -6 0 -16 -36 -22 -81z"/>
<path d="M13647 3981 c-82 -114 -189 -172 -592 -324 -358 -134 -427 -155 -910
-276 -220 -55 -465 -121 -545 -146 -251 -79 -390 -108 -550 -117 -82 -5 -38
-23 50 -21 108 3 237 30 465 99 99 30 369 102 600 160 447 112 681 185 995
309 338 134 438 194 520 313 15 22 19 37 13 43 -7 7 -23 -7 -46 -40z"/>
<path d="M7675 3100 c-10 -17 0 -26 148 -124 78 -52 162 -115 187 -140 46 -48
60 -55 60 -32 0 22 -93 102 -202 173 -57 37 -122 82 -145 100 -25 21 -44 30
-48 23z"/>
<path d="M7510 2925 c0 -8 6 -15 13 -15 29 0 121 -53 167 -96 28 -26 73 -78
101 -116 48 -65 69 -82 69 -57 0 20 -100 147 -153 195 -48 44 -156 104 -184
104 -7 0 -13 -7 -13 -15z"/>
</g>
</svg>
